<?xml version="1.0" encoding="UTF-8" standalone="no"?>
<svg xmlns:inkscape="http://www.inkscape.org/namespaces/inkscape" xmlns:sodipodi="http://sodipodi.sourceforge.net/DTD/sodipodi-0.dtd" xmlns="http://www.w3.org/2000/svg" xmlns:svg="http://www.w3.org/2000/svg" version="1.1" id="svg1" width="499.99991" height="453.76346" viewBox="0 0 499.99991 453.76346">
  <defs id="defs1">
    <linearGradient id="linearGradient271">
      <stop style="stop-color:#ff0000;stop-opacity:1;" offset="0" id="stop271"></stop>
      <stop style="stop-color:#ff0000;stop-opacity:0;" offset="1" id="stop272"></stop>
    </linearGradient>
  </defs>
  <g id="g1" transform="translate(-3.2478435,-54.754855)">
    <path style="fill:#02444d;fill-opacity:1;stroke:#03444e;stroke-width:0.732265;stroke-opacity:1" d="m 149.05248,351.59677 c -0.55827,3.18958 0.17794,4.11279 2.30487,4.66844 21.83603,2.34976 48.85215,7.93265 67.96937,19.35888 l 57.49898,34.52161 c 5.38366,3.00995 7.31185,3.77302 9.68599,3.37292 3.53851,-1.07154 3.9805,-4.8932 5.85809,-12.08232 2.04587,-11.89924 4.28952,-23.89002 7.41414,-35.69773 2.44832,-7.8651 5.21927,-13.48736 7.96335,-16.84201 3.04877,-3.93027 8.96339,-6.80515 12.81457,-7.50568 14.2851,-2.24556 27.1111,-0.989 41.73889,-2.19679 13.56537,-1.44712 15.22474,-6.47154 19.588,-10.98391 1.85474,-4.04196 5.03795,-11.04989 4.2105,-18.85573 -0.6102,-4.33255 -2.38761,-10.93824 -1.0984,-14.0045 6.23338,-5.74382 7.45215,-8.75239 8.42101,-11.62464 0.23755,-1.7856 -0.25695,-3.08318 -0.73226,-4.39358 -2.16376,-3.9061 -2.99304,-3.80783 -4.29061,-5.33177 1.30774,-1.32219 3.30989,-2.47625 4.79726,-3.98973 1.14987,-1.17011 1.96612,-2.63316 2.07918,-4.06514 0.10355,-2.59593 0.88501,-5.05783 -1.63616,-8.87867 -1.55049,-2.07474 -3.56985,-3.05554 -4.65155,-6.22423 -0.49823,-1.90768 -0.0807,-3.66274 -0.10815,-5.49196 0.63341,-1.28308 0.67419,-2.69785 2.74598,-3.6613 5.83378,0.11076 9.69346,-1.02871 13.14636,-2.4485 3.09534,-2.219 5.11338,-4.67219 6.22422,-7.32261 0.95641,-4.19179 -0.22554,-6.26368 -1.46452,-8.42101 -6.46887,-12.18082 -16.0664,-22.72281 -24.16463,-34.05015 -2.5881,-4.39425 -4.34692,-8.40459 -5.22197,-13.998 -0.64249,-12.23309 -0.17427,-13.70161 -1.91757,-21.15054 -8.41617,-37.90542 -25.36641,-53.01747 -39.35904,-67.001912 -28.26507,-21.582474 -48.45059,-27.436456 -70.29709,-31.304165 -17.89874,-1.507597 -58.11936,-4.284461 -96.84155,23.615422 -20.43632,15.850633 -43.65838,40.949625 -51.80749,78.901155 -1.86317,12.51714 -2.1995,23.8128 -1.6254,34.38014 0.52774,20.75424 9.53148,40.56669 19.43634,60.26463 6.25548,9.70247 14.26306,21.08773 16.7884,29.85171 4.94782,18.48397 2.72197,23.87739 3.11212,35.13648 -0.29416,13.50413 -6.23858,26.9959 -8.58123,33.45519 z" id="path274-2"></path>
    <path style="fill:#04444e;fill-opacity:1;stroke-width:0.25" d="" id="path22"></path>
    <path style="fill:#04444e;fill-opacity:1;stroke-width:0.25" d="" id="path29"></path>
    <path style="fill:#04444e;fill-opacity:1;stroke-width:0.00390625" d="" id="path32"></path>
    <path style="fill:#04444e;fill-opacity:1;stroke-width:0.00390625" d="" id="path38"></path>
    <path style="fill:#04444e;fill-opacity:1;stroke-width:0.0220971" d="" id="path46"></path>
    <path style="fill:#04444e;fill-opacity:1;stroke-width:0.0220971" d="" id="path48"></path>
    <path style="fill:#04444e;fill-opacity:1;stroke-width:0.00390625" d="" id="path90"></path>
    <path style="fill:#04444e;fill-opacity:1;stroke-width:0.03125" d="" id="path105"></path>
    <path style="fill:#04444e;fill-opacity:1;stroke-width:0.0441942" d="" id="path243"></path>
    <path style="fill:#ca731f;fill-opacity:1;stroke:#cc7520;stroke-width:0.732265;stroke-opacity:1" d="m 271.79075,194.66866 c -5.66807,-2.43111 -12.76719,-7.12284 -12.92178,-18.64126 0.39044,-5.3461 5.71692,-16.07769 17.58995,-16.05422 10.6202,1.68669 16.04333,8.20628 16.49155,15.99141 -0.11746,13.31886 -6.79546,14.7 -12.18951,18.15487 v 54.27887 l 26.26986,27.7344 -0.32036,52.90587 -8.05487,6.45306 -0.4119,-55.88069 -26.37063,-26.25877 z" id="path276-7-7"></path>
    <ellipse style="fill:#03444d;fill-opacity:1;stroke:#03434c;stroke-width:0.732265;stroke-opacity:1" id="path277-9-5" ry="7.5972109" rx="7.2768469" cy="177.36896" cx="275.68082"></ellipse>
    <path style="fill:#ca731f;fill-opacity:1;stroke:#cc7520;stroke-width:0.732265;stroke-opacity:1" d="m 225.29216,219.93168 c -5.66807,-2.43112 -12.7672,-7.12285 -12.92178,-18.64126 0.39044,-5.3461 5.71691,-16.0777 17.58994,-16.05423 10.62021,1.6867 16.04334,8.20629 16.49155,15.99141 -0.11745,13.31886 -6.79545,14.7 -12.18951,18.15488 v 30.75497 l 42.01349,43.84415 v 106.45248 l -8.60407,-4.94276 v -98.30608 l -42.31299,-43.32807 z" id="path276-0-9"></path>
    <ellipse style="fill:#03444d;fill-opacity:1;stroke:#03434c;stroke-width:0.732265;stroke-opacity:1" id="path277-6-2" ry="7.5972109" rx="7.2768469" cy="202.63199" cx="229.18221"></ellipse>
    <path style="fill:#c9741e;fill-opacity:1;stroke:#cb7520;stroke-width:0.732265;stroke-opacity:1" d="m 126.14464,187.80529 c 0.007,6.34569 0.43599,13.28309 1.94166,17.9931 C 218.29137,112.38766 311.33982,98.785035 333.87428,93.729881 L 318.17884,80.979379 C 288.49905,91.161358 198.53819,110.28578 126.14464,187.80529 Z m 4.48686,27.25652 c 1.50399,6.41994 3.54356,11.9729 5.86278,17.50671 84.56394,-97.16679 194.78062,-112.65835 217.43817,-116.72858 -5.8523,-7.53551 -7.32261,-9.90727 -13.23313,-14.81514 -60.01855,11.01228 -150.48885,47.50142 -210.06782,114.03701 z" id="path275-8"></path>
    <path style="fill:#ca731f;fill-opacity:1;stroke:#cc7520;stroke-width:0.732265;stroke-opacity:1" d="m 181.88986,256.35704 c -5.66807,-2.43111 -12.7672,-7.12284 -12.92177,-18.64126 0.39043,-5.3461 5.7169,-16.07769 17.58994,-16.05422 10.6202,1.68669 16.04333,8.20629 16.49155,15.99141 -0.11746,13.31886 -6.79546,14.7 -12.18952,18.15487 l -0.0915,10.25166 51.71595,51.34983 -0.36613,62.05914 -9.51939,-5.21737 -0.0915,-53.27201 -50.80985,-51.79637 z" id="path276-9"></path>
    <ellipse style="fill:#02434c;fill-opacity:1;stroke:#02444c;stroke-width:0.732265;stroke-opacity:1" id="path277-7" ry="7.5972109" rx="7.2768469" cy="239.05733" cx="185.77998"></ellipse>
    <text xml:space="preserve" style="font-size:78.1082px;text-align:start;writing-mode:lr-tb;direction:ltr;text-anchor:start;fill:#03444d;fill-opacity:1;stroke:#03434c;stroke-width:0.732265;stroke-opacity:1" x="0.56779081" y="507.44931" id="text278">
      <tspan id="tspan278" x="0.56779081" y="507.44931" style="font-style:normal;font-variant:normal;font-weight:normal;font-stretch:normal;font-size:78.1082px;font-family:Poppins;-inkscape-font-specification:Poppins;stroke-width:0.732265">OriCode.tech</tspan>
    </text>
  </g>
</svg>
